PathFileType	3	(X/Y/Z)	D:\Vicon Setup\UG\Test1\New Session\NewSession15.trc
DataRate	CameraRate	NumFrames	NumMarkers	Units	OrigDataRate	OrigDataStartFrame	OrigNumFrames
100.0	100.0	5	27	mm	100.0	406	359	
Frame#	Time	Sternum			LShoulder			RShoulder			LASIS			RASIS			RPSIS			LPSIS			RKneeLateral			RKneeMedial			RFibulaHead			RMidShank			RAnkleLateral			RAnkleMedial			RHeel			RMT5			RMT2			RToe			LKneeLateral			LKneeMedial			LFibulaHead			LMidShank			LAnkleLateral			LAnkleMedial			LHeel			LMT5			LMT2			LToe			
		X1	Y1	Z1	X2	Y2	Z2	X3	Y3	Z3	X4	Y4	Z4	X5	Y5	Z5	X6	Y6	Z6	X7	Y7	Z7	X8	Y8	Z8	X9	Y9	Z9	X10	Y10	Z10	X11	Y11	Z11	X12	Y12	Z12	X13	Y13	Z13	X14	Y14	Z14	X15	Y15	Z15	X16	Y16	Z16	X17	Y17	Z17	X18	Y18	Z18	X19	Y19	Z19	X20	Y20	Z20	X21	Y21	Z21	X22	Y22	Z22	X23	Y23	Z23	X24	Y24	Z24	X25	Y25	Z25	X26	Y26	Z26	X27	Y27	Z27	
406	4.05	-304.66812	1402.7379	-1954.7836	-89.900162	1467.163	-1973.5591	-431.92194	1430.8843	-2098.9578	-141.09805	1002.9089	-1949.8053	-391.49463	1023.8013	-1989.757	-300.10861	1050.2449	-2144.6172	-172.6808	1048.6823	-2127.3049	-424.36874	560.99841	-1902.1704	-303.41641	555.00043	-1854.4983	-426.2236	478.4725	-1889.6962	-340.26245	326.46854	-1829.9943	-361.89511	107.82604	-1868.6821	-305.47031	158.71021	-1813.6692	-289.48511	99.397095	-1925.608	-392.54132	36.429897	-1719.7717	-345.30652	88.199562	-1714.796	-349.63876	83.63768	-1671.2804	-121.84992	518.81097	-2066.0366	-246.10568	504.45068	-2046.6533	-120.01895	475.79977	-2110.625	-210.62111	345.59058	-2185.2117	-177.76617	238.12648	-2378.3718	-254.77531	224.51375	-2329.1519	-241.90915	297.1781	-2419.0781	-164.56764	87.270943	-2395.5762	-222.20834	89.233711	-2347.5928	-233.31503	54.924114	-2339.9473
407	4.06	-305.53909	1399.5814	-1934.6864	-90.003052	1461.5859	-1951.8871	-431.93304	1425.2188	-2078.9121	-142.31779	998.65607	-1925.7979	-392.4314	1018.5269	-1967.1392	-299.75555	1043.428	-2121.7378	-172.45529	1042.5366	-2103.5249	-423.90073	555.27625	-1877.2321	-304.0545	552.00348	-1826.4009	-424.82236	473.03439	-1866.297	-338.55615	320.9942	-1807.4303	-357.84543	103.51151	-1850.9896	-301.88913	152.83618	-1793.277	-282.65054	100.88044	-1908.1033	-389.31152	27.730631	-1706.7357	-339.74292	76.241615	-1697.5679	-343.80502	68.82991	-1653.4133	-120.95444	513.16724	-2032.8915	-245.46069	499.45291	-2016.533	-118.31894	471.26404	-2078.0886	-209.74406	345.28699	-2159.3501	-174.74867	247.11116	-2357.1355	-251.70746	231.65593	-2308.0398	-239.6803	305.24182	-2397.8938	-158.71231	96.518791	-2374.9963	-216.35493	97.370865	-2326.9924	-226.55629	62.352806	-2319.5217
408	4.07	-306.19473	1395.2054	-1914.4132	-90.236832	1454.9226	-1930.2649	-431.85858	1418.1682	-2058.4141	-143.33607	993.33698	-1902.0706	-393.43127	1012.2637	-1944.7042	-299.37198	1035.3126	-2099.1985	-172.13766	1034.9989	-2080.0515	-423.26788	548.58051	-1852.8866	-305.17636	547.98297	-1798.3071	-423.29254	466.62445	-1843.3049	-336.1925	314.58768	-1786.5394	-353.45682	103.39696	-1839.5554	-296.86319	147.30676	-1777.2043	-273.31784	106.83516	-1894.5668	-390.89761	29.661978	-1701.8416	-332.28693	63.65625	-1685.7086	-336.13525	51.484802	-1642.5029	-120.35764	506.25247	-1998.3103	-244.87534	493.75757	-1985.7656	-116.96812	465.99652	-2044.2775	-207.94514	343.94626	-2131.5225	-171.66803	255.33482	-2333.4419	-248.72049	238.73122	-2285.3425	-236.76274	312.88666	-2375.0654	-152.33453	105.56501	-2351.2571	-210.75693	105.21871	-2303.9604	-220.0817	69.829529	-2296.7356
409	4.08	-306.56708	1389.5989	-1893.7412	-90.325775	1447.4832	-1908.5651	-432.02963	1410.0496	-2037.5822	-144.39404	987.02325	-1878.4648	-394.31558	1005.0548	-1922.7113	-298.86749	1026.2389	-2077.3672	-171.66667	1026.2115	-2057.0901	-422.03806	541.2171	-1829.4963	-306.11957	542.0376	-1769.8029	-421.51846	459.53616	-1819.7909	-330.17285	307.55768	-1769.6016	-343.26883	105.0347	-1836.749	-282.39096	141.422	-1772.8629	-265.02036	99.673828	-1895.6194	-388.20004	31.84123	-1700.3235	-327.79379	60.585789	-1682.2686	-332.0589	44.239658	-1640.2058	-119.50359	499.16891	-1962.4318	-243.88695	486.86493	-1953.1176	-115.86871	460.20584	-2009.0251	-205.75255	342.95679	-2102.3584	-168.07565	263.461	-2307.3599	-245.71574	244.85982	-2260.2617	-233.19295	320.29333	-2349.8086	-145.4754	114.36143	-2325.3081	-204.62697	113.03325	-2279.2605	-213.29681	77.054581	-2272.3391
410	4.09	-306.64624	1382.6743	-1872.5685	-90.265945	1439.3744	-1886.9146	-432.66025	1401.1892	-2016.4535	-145.69931	979.71582	-1855.7023	-395.18497	997.16016	-1901.4576	-298.61789	1016.3363	-2056.324	-171.19632	1016.3737	-2034.7052	-420.2132	533.37579	-1805.963	-305.19153	534.49237	-1742.8945	-418.54263	451.3927	-1794.8569	-319.82916	301.1908	-1759.3976	-335.53329	103.8922	-1837.1694	-269.06763	140.27156	-1777.5426	-258.96326	93.319511	-1896.6017	-385.65982	33.891273	-1700.7095	-324.03073	58.499977	-1681.2865	-329.74982	41.291332	-1639.6614	-118.59596	491.61444	-1925.4371	-243.13739	479.58716	-1918.7905	-114.59023	454.60245	-1972.8922	-204.39145	342.23727	-2071.4678	-164.05194	270.85675	-2278.4368	-242.1188	250.73033	-2233.0627	-229.1136	327.60526	-2321.2749	-138.66409	122.89909	-2297.8909	-198.64807	119.84194	-2252.7107	-206.82875	83.626358	-2246.53
